<?xml version="1.0" encoding="utf-8"?>
<!-- Generator: Adobe Illustrator 24.0.2, SVG Export Plug-In . SVG Version: 6.00 Build 0)  -->
<svg version="1.1" id="Layer_1" xmlns="http://www.w3.org/2000/svg" xmlns:xlink="http://www.w3.org/1999/xlink" x="0px" y="0px"
	 viewBox="0 0 964.3 455.7" style="enable-background:new 0 0 964.3 455.7;" xml:space="preserve">
<style type="text/css">
	.st0{fill:#C8202F;}
	.st1{fill:none;stroke:#9E1E2F;stroke-width:7;stroke-miterlimit:10;stroke-dasharray:4.9893,4.9893;}
	.st2{font-family:'SignPainter-HouseScriptSemibold';}
	.st3{font-size:294.6161px;}
	.st4{fill:#FFFFFF;}
</style>
<path class="st0" d="M199.1,5l282.7,99.1c18.9,6.6,39.1,6.5,58-0.3l245.6-88.7c78.8-28.5,152,61.2,127.4,156.1l-51.1,197.3
	c-16.7,64.6-73.2,101.1-126.9,82.1L422.5,339.9c-20.6-7.3-42.5-6.6-62.7,1.9l-177.8,75C108.9,447.7,35,373.3,46.7,280.8L69,105.4
	C78.4,31.3,139.5-15.9,199.1,5z"/>
<g>
	<path class="st1" d="M217,43.9l264.5,94.8c17.7,5.4,36.6,5.3,54.3-0.2l230.2-86.4c73.8-22.9,142.3,49.3,119.3,125.9l-47.8,159
		c-15.7,52.1-68.5,81.5-118.8,66.1l-292.4-89.2c-19.3-5.9-39.8-5.3-58.7,1.5L201.1,376c-68.5,24.9-137.7-35.1-126.7-109.7
		l20.8-141.3C104,65.2,161.3,27.1,217,43.9z"/>
</g>
<g>
	<text transform="matrix(0.9895 0 0 1 10.3734 305.577)" class="st2 st3">Budweizer</text>
	<text transform="matrix(0.9895 0 0 1 0.289 305.577)" class="st4 st2 st3">Budweizer</text>
</g>
</svg>
